<?xml version="1.0" standalone="no"?>
<!DOCTYPE svg PUBLIC "-//W3C//DTD SVG 20010904//EN"
 "http://www.w3.org/TR/2001/REC-SVG-20010904/DTD/svg10.dtd">
<svg version="1.0" xmlns="http://www.w3.org/2000/svg"
 width="128.000000pt" height="128.000000pt" viewBox="0 0 128.000000 128.000000"
 preserveAspectRatio="xMidYMid meet">

<g transform="translate(0.000000,128.000000) scale(0.100000,-0.100000)"
fill="#000000" stroke="none">
<path d="M464 586 c-10 -25 3 -265 16 -309 15 -51 66 -106 118 -130 56 -24
180 -34 221 -17 37 15 55 64 48 128 -6 56 -34 82 -86 82 -20 0 -47 7 -59 16
-20 14 -22 23 -22 114 l0 99 -37 10 c-21 6 -73 14 -115 17 -68 6 -78 5 -84
-10z"/>
</g>
</svg>
